#!OML:ASF E:/inclinewalkrobotboard/Project1/Captureday1/Session1/subject1.ASF
:FULLY-SPECIFIED
:DEGREES
38
root 0 0 0 0.7846052497163445 -3.801654030524979 -1.439271033874908
lowerback 5.210630468214656 -0.7704998779104981 3.087183753006788
upperback 0.0033251634092041904 -0.6073423819536287 0.8750013279262375
thorax -2.8007632938290814 -0.276054983864545 -0.6574522661602709
lowerneck -10.69806556688878 0.9399310966839365 -4.903302471290678
upperneck 3.53389713190648 2.050032081398042 -1.4002340460264797
head 3.042104695956985 1.021305062472773 0.5100146225808615
rclavicle -1.0280506413138176E-14 -3.0056517489990706E-16
rhumerus 2.595855475314025 -11.607486753222004 -67.15640338735574
rradius 18.4177686108452
rwrist 57.270554836353085
rhand -7.178360882873855 21.440295152423314
rfingers 7.125019999999916
rthumb 18.702785511235888 -8.249053927486848
lclavicle -5.3677143406589014E-15 2.694211006492874E-15
lhumerus -27.61449259041136 3.40654357023357 79.0621630988416
lradius 27.474045777359528
lwrist -40.161986345255855
lhand -8.33781601840894 14.814263885572824
lfingers 7.0532097990755
lthumb 17.306831485423697 46.58826158733226
rfemur 0.6747704053014267 8.39369157294841 36.48155451765491
rtibia 24.08258583349653
rfoot -19.844791507677566 -6.184680162121325
rtoes 12.23404782386236
lfemur -8.43785524677703 1.8558189198610584 -14.785678571659375
ltibia 68.13659034940945
lfoot 11.58688906037935 -17.676103516262078
ltoes -10.06493895732109
39
root 0 0 0 4.075836038460137 -4.3704229051731165 -1.6692727609552764
lowerback 6.444710841762243 0.14636582680506527 4.508203252623282
upperback 0.6186299020476254 0.644403042178463 0.8222954409893038
thorax -2.8848896354848583 0.36012724562495546 -1.6532455510380362
lowerneck -9.212664245202266 1.0151278808708835 -4.668473960083172
upperneck 1.2748153195005063 2.167109540550074 -1.700070230541714
head 2.0536626345950895 1.0792257685178623 0.405003816981786
rclavicle -1.0234067413200234E-14 -4.363418370050751E-16
rhumerus 2.723581239294612 -11.21876449207688 -67.32552060769589
rradius 18.31826978978559
rwrist 57.20467856364424
rhand -7.110688641378713 21.31674424019484
rfingers 7.1250199999999175
rthumb 18.766327618789497 -8.367372277477493
lclavicle -5.9530255051841655E-15 2.362434273062689E-15
lhumerus -27.40594976745465 3.8864717278825722 78.73718279429279
lradius 27.40100474066189
lwrist -39.721729362202524
lhand -8.5383290882909 14.892734004944327
lfingers 7.056514847964094
lthumb 17.1280526940597 45.347001315052694
rfemur 1.4015589428758126 8.393084624838108 36.77207425255217
rtibia 24.28477982539509
rfoot -20.999173230477865 -6.308360988883717
rtoes 11.626724045398726
lfemur -14.60733287872349 3.0191560981762633 -13.634855334599514
ltibia 72.1588627410676
lfoot 8.906171083441789 -16.11032511986846
ltoes -10.648521258341566
40
root 0 0 0 5.006896918813176 -4.684922291359488 -2.3562587700116606
lowerback 6.429424313165823 0.6627955479114753 4.989425367768762
upperback 0.8258129032038366 1.3470165066531639 0.7056540801462431
thorax -2.7147293769953884 0.7184177019407645 -2.120147766717071
lowerneck -8.391008555177185 0.561477860599755 -4.731500481394308
upperneck 1.403182070241078 1.476798315857553 -1.2615621097488674
head 1.9970972630814674 0.750151507919782 0.5205059907412375
rclavicle -1.0328837942290194E-14 -4.81063365687045E-16
rhumerus 2.7495160733879516 -10.736047617022836 -67.51111412160837
rradius 18.30760025705206
rwrist 57.106470554184014
rhand -7.0615764923916515 21.224189447828984
rfingers 7.125019999999918
rthumb 18.812054328688028 -8.45547994620502
lclavicle -6.919817831521386E-15 2.2429034454759687E-15
lhumerus -27.53544954872595 4.343348706872288 78.50498621701107
lradius 27.252440942467594
lwrist -39.232923831657516
lhand -8.523151472077497 14.997578844983348
lfingers 7.058517944603723
lthumb 17.151582608864285 43.389128866045226
rfemur 2.1659642738784264 8.405578047426829 36.97743568401
rtibia 24.391360642167246
rfoot -21.673781360353672 -6.317718768928447
rtoes 10.965884619312826
lfemur -17.68507206127249 3.3261727356451942 -12.973733474406053
ltibia 72.43986753820226
lfoot 7.4589964701477225 -15.086898643561778
ltoes -11.26128755020095
41
root 0 0 0 5.72150335137505 -4.776987946945082 -3.2600195096751903
lowerback 6.398680823092479 1.0834916647934818 5.170428208493133
upperback 0.9792979150722183 1.9007570738876534 0.5414723231425879
thorax -2.584250685296676 0.9989485670243492 -2.4541656312785087
lowerneck -7.7770548499828625 -0.1257151791095512 -4.8646801007048355
upperneck 2.066398541830157 0.4546622157537161 -0.3033984842033197
head 2.1685035039226994 0.26562320715786614 0.7999974469184004
rclavicle -1.0479075695373133E-14 -4.501289974535377E-16
rhumerus 2.7485785639272926 -10.260412969742857 -67.66872778913114
rradius 18.330232959375905
rwrist 57.000720338525596
rhand -7.02602416841111 21.1440926259227
rfingers 7.12501999999992
rthumb 18.84462902608018 -8.532045499510037
lclavicle -7.888569828126938E-15 2.372407693567448E-15
lhumerus -27.874881136284117 4.732401237919543 78.41043470186244
lradius 27.182284069319188
lwrist -38.834706915496454
lhand -8.445164998926142 15.108035018491632
lfingers 7.059709971080592
lthumb 17.23273290542697 41.502982335089186
rfemur 3.2562281123414074 8.450566977737097 37.1744563207244
rtibia 24.456061100867945
rfoot -22.081617200681592 -6.224199138475633
rtoes 10.13282290341999
lfemur -19.972368982754112 3.404458900668538 -12.36731861033246
ltibia 71.74269932714577
lfoot 6.260604983332607 -14.078848915241736
ltoes -11.85388981122223
42
root 0 0 0 6.4017837674595 -3.6259717188413134 -4.103794982968355
lowerback 6.886954668342109 1.4716186589861926 5.120489001325157
upperback 1.2154569762985232 2.37373551098047 0.30645975520514435
thorax -2.632661127640961 1.2345709442299944 -2.7218539977248777
lowerneck -7.360676044189919 -0.9695270250479129 -5.022476549871683
upperneck 2.5834707720683703 -0.7401538302464283 0.9894465454791224
head 2.345688991640731 -0.29622217237952575 1.1872605461252363
rclavicle -1.0629430965634981E-14 -3.98388948335588E-16
rhumerus 2.8156232262309335 -9.970786414398232 -67.73035433001694
rradius 18.40893404988484
rwrist 56.90466574622043
rhand -7.022246055730326 21.099320043937965
rfingers 7.125019999999921
rthumb 18.847279023386815 -8.575479915876741
lclavicle -8.558765403243444E-15 2.5793356877869267E-15
lhumerus -28.32848882246639 4.831458237136438 78.53887198948588
lradius 27.18867300688234
lwrist -38.61806941601452
lhand -8.37263850692305 15.198121865803213
lfingers 7.059559985512539
lthumb 17.30353845143967 40.16652766322086
rfemur 4.51084031539725 8.505417921293553 37.33841289631082
rtibia 24.51559017071416
rfoot -22.199894942935412 -6.033116878076674
rtoes 9.206860578070604
lfemur -21.78993417173725 3.377299551918976 -11.80206692056163
ltibia 70.69894829291457
lfoot 5.230211415860021 -13.08237924263996
ltoes -12.316541583927112
43
root 0 0 0 7.36672545103899 0.5190145919401665 -5.627165376255023
lowerback 8.455521734732622 2.1225838518075593 4.5514028041223495
upperback 1.782596192036063 3.10362216964639 -0.1902068321949259
thorax -2.915220131727581 1.5935622065585244 -2.999699384705494
lowerneck -6.981574367021946 -2.280263448337167 -5.376266225566158
upperneck 3.7470474864710877 -2.5002267249063914 3.0340527235958366
head 2.7989024177455146 -1.1225926472010843 1.8094560415873993
rclavicle -1.0698449068257481E-14 -3.3097839552849436E-16
rhumerus 3.1342620867245135 -9.923160081312835 -67.72781243343832
rradius 18.493445401710808
rwrist 56.88047452426689
rhand -7.018461002685015 21.145201409469454
rfingers 7.125019999999921
rthumb 18.851341873314027 -8.529704464992534
lclavicle -8.850600223577286E-15 2.924930601976708E-15
lhumerus -29.026588895671033 4.315392125351952 79.11394859813288
lradius 27.318336633971946
lwrist -38.49312993883456
lhand -8.478012161422086 15.312211903067814
lfingers 7.058314677662734
lthumb 17.20047986932344 39.48955782638301
rfemur 6.303702601190672 8.537492685140965 37.49778007945285
rtibia 24.679955942090874
rfoot -21.895179221748066 -5.602800604228222
rtoes 7.773142256986549
lfemur -23.88556066725368 3.265890909438011 -11.131056971423664
ltibia 69.1389855762068
lfoot 4.100348685598442 -11.836533797658316
ltoes -12.655905092674725
44
root 0 0 0 7.787941258218408 4.3250485612209 -6.521569995654909
lowerback 9.566241552605398 2.5267167531110992 3.859771397300653
upperback 2.1277410925814197 3.5280423535009713 -0.5858308304506028
thorax -3.1630324725586987 1.8035521161209258 -3.068658420795263
lowerneck -6.948182030610633 -3.001821850171221 -5.631427767616458
upperneck 4.307946327245812 -3.4235643961276736 3.948374806200582
head 3.075432912999154 -1.5573351653045175 2.0840240411872704
rclavicle -1.0703254106421202E-14 -2.8995189124092397E-16
rhumerus 3.46129979334986 -10.064093406842597 -67.67953953650066
rradius 18.47940266659795
rwrist 56.94725952927554
rhand -6.99631614909779 21.239001231928775
rfingers 7.12501999999992
rthumb 18.87369599280743 -8.436420272250022
lclavicle -8.72913465990851E-15 3.1573467419079963E-15
lhumerus -29.357055523328576 3.7669531208595117 79.55334360312673
lradius 27.518803861563697
lwrist -38.40812322502234
lhand -8.662181166642647 15.385612681921556
lfingers 7.057087136113632
lthumb 17.020484105215164 39.58802918663555
rfemur 7.324417466106631 8.495423509363828 37.53808890115852
rtibia 24.89887744927566
rfoot -21.32284278641776 -5.224019962786516
rtoes 6.838028302111981
lfemur -24.974066009580582 3.1976149533729163 -10.865374928388055
ltibia 68.39338609549962
lfoot 3.664509887157399 -11.260625508756807
ltoes -12.527949418260562
45
root 0 0 0 7.971475963447929 8.715347928275456 -7.070488028699514
lowerback 10.353436081345794 2.8170068753262183 3.110185236274347
upperback 2.3082878061281162 3.8180762200655476 -0.9708345091865475
thorax -3.400348434234426 1.9499671053212484 -3.074863053980599
lowerneck -7.038281278324228 -3.5939752372521965 -5.8664378937246635
upperneck 4.2139816372907015 -4.171035390961654 4.439479761215594
head 3.1669864886641115 -1.909350481207357 2.2272358216699635
rclavicle -1.0744752315939445E-14 -2.2717987885156875E-16
rhumerus 3.8325996589200475 -10.24238348031202 -67.57304356761507
rradius 18.426462441637312
rwrist 57.02604356350625
rhand -6.965565714669012 21.33216504105237
rfingers 7.125019999999919
rthumb 18.904227994919452 -8.343869836312415
lclavicle -8.739244258994423E-15 3.414895203402555E-15
lhumerus -29.442377715689787 3.2827698358373105 79.85918473720551
lradius 27.82118924210215
lwrist -38.31419610369768
lhand -8.85367363339046 15.431293361568873
lfingers 7.056487464090683
lthumb 16.835313859849204 40.129444861814505
rfemur 7.793586202205294 8.37237131517295 37.47455272507356
rtibia 25.288797339707152
rfoot -20.487282773794394 -4.870517565107386
rtoes 6.229564559044084
lfemur -25.459166893563108 3.161891419627187 -10.919528044628878
ltibia 68.03744435597676
lfoot 3.554334178873047 -11.085550161882804
ltoes -12.11277746334556
